# xmcd
#
# Track frame offsets:
#	150
#	13675
#	25270
#	41800
#	54475
#	70032
#	83730
#	95665
#	105840
#	120880
#	138142
#	153772
#	170379
#	181617
#	193792
#	208804
#	222217
#	245429
#	261704
#	267129
#
# Disc length: 3708 seconds
#
# Revision: 1
# Processed by: cddbd v1.5.1PL0 Copyright (c) Steve Scherf et al.
# Submitted via: CDex 1.50Beta5
#
DISCID=0a0e7a14
DTITLE=山下達郎 - ON THE STREET CORNER 1&2
DYEAR=1900
DGENRE=Bop
TTITLE0=YOU BELONG TO ME
TTITLE1=CLOSE YOUR EYES
TTITLE2=SPANISH HARLEM
TTITLE3=ALONE
TTITLE4=MOST OF ALL
TTITLE5=REMEMBER ME BABY
TTITLE6=BLUE VELVET
TTITLE7=WIND
TTITLE8=DRIP DROP
TTITLE9=THAT'S MY DESIRE
TTITLE10=AMAPOLA
TTITLE11=THE COMMANDMENTS OF LOVE
TTITLE12=SO MUCH IN LOVE
TTITLE13=MAKE IT EASY ON YOURSELF
TTITLE14=MY MEMORIES OF YOU
TTITLE15=CHAPEL OF DREAMS
TTITLE16=YOU MAKE ME FEEL BRAND NEW
TTITLE17=I ONLY HAVE EYES FOR YOU
TTITLE18=SILENT NIGHT
TTITLE19=WHITE CRISTMAS
EXTD=
EXTT0=
EXTT1=
EXTT2=
EXTT3=
EXTT4=
EXTT5=
EXTT6=
EXTT7=
EXTT8=
EXTT9=
EXTT10=
EXTT11=
EXTT12=
EXTT13=
EXTT14=
EXTT15=
EXTT16=
EXTT17=
EXTT18=
EXTT19=
PLAYORDER=
